<svg xmlns="http://www.w3.org/2000/svg" viewBox="0 0 256 256" role="img" aria-label="Game Boy cartridge back">
  <defs>
    <linearGradient id="body" x1="0" y1="0" x2="1" y2="1">
      <stop offset="0%" stop-color="#d8dbd4"/>
      <stop offset="55%" stop-color="#aeb4ac"/>
      <stop offset="100%" stop-color="#737a73"/>
    </linearGradient>
    <linearGradient id="contacts" x1="0" y1="0" x2="0" y2="1">
      <stop offset="0%" stop-color="#f0d77f"/>
      <stop offset="100%" stop-color="#c79d2a"/>
    </linearGradient>
  </defs>
  <rect x="50" y="30" width="156" height="196" rx="18" fill="url(#body)" stroke="#555b56" stroke-width="4"/>
  <rect x="64" y="46" width="128" height="100" rx="12" fill="#c7ccc5" stroke="#8d948b" stroke-width="3"/>
  <rect x="74" y="166" width="108" height="26" rx="7" fill="#767c75" stroke="#5b615b" stroke-width="2"/>
  <rect x="92" y="176" width="72" height="8" rx="4" fill="url(#contacts)"/>
  <circle cx="88" cy="66" r="6" fill="#808780"/>
  <circle cx="168" cy="66" r="6" fill="#808780"/>
  <circle cx="88" cy="140" r="6" fill="#808780"/>
  <circle cx="168" cy="140" r="6" fill="#808780"/>
  <path d="M80 56h96c4 0 7 3 7 7v2c0 4-3 7-7 7H80c-4 0-7-3-7-7v-2c0-4 3-7 7-7z" fill="#e4e7e1" opacity="0.75"/>
</svg>