<svg xmlns="http://www.w3.org/2000/svg" viewBox="0 0 64 64" fill="none">
  <path d="M17 18H47C52.4 18 57 22.2 58.1 27.4L60 36.2C61.5 43 56.3 49.5 49.3 49.5C45.8 49.5 42.6 47.6 40.9 44.6L38 39.5H26L23.1 44.6C21.4 47.6 18.2 49.5 14.7 49.5C7.7 49.5 2.5 43 4 36.2L5.9 27.4C7 22.2 11.6 18 17 18Z" stroke="#F5F6FB" stroke-width="4" stroke-linejoin="round"/>
  <path d="M19 30V38" stroke="#F5F6FB" stroke-width="4" stroke-linecap="round"/>
  <path d="M15 34H23" stroke="#F5F6FB" stroke-width="4" stroke-linecap="round"/>
  <circle cx="45" cy="31" r="2.8" fill="#F5F6FB"/>
  <circle cx="49" cy="35" r="2.8" fill="#F5F6FB"/>
  <circle cx="45" cy="39" r="2.8" fill="#F5F6FB"/>
  <circle cx="41" cy="35" r="2.8" fill="#F5F6FB"/>
</svg>
